<?xml version="1.0" encoding="utf-8"?>
<!-- Generator: Adobe Illustrator 22.0.0, SVG Export Plug-In . SVG Version: 6.00 Build 0)  -->
<svg version="1.1" id="Layer_1" xmlns="http://www.w3.org/2000/svg" xmlns:xlink="http://www.w3.org/1999/xlink" x="0px" y="0px"
	 viewBox="0 0 183.3 17.2" style="enable-background:new 0 0 183.3 17.2;" xml:space="preserve">
<g>
	<g>
		<g>
			<path d="M10.4,3H0.9V0.2H16l-10.3,14h10.5V17H0L10.4,3z"/>
			<path d="M54,0.2h2.8v14h10.7V17H54V0.2z"/>
			<path d="M78,0.2h2.8V17H78V0.2z"/>
			<path d="M149.7,8.4l8.4,8.6h-3.7l-8.2-8.3V17h-2.8V0.2h2.8v7.9l8.2-7.9h3.7L149.7,8.4z"/>
			<path d="M174.7,0c2.4,0,4.4,0.8,6.1,2.5c1.7,1.7,2.6,3.7,2.6,6.1c0,2.4-0.9,4.4-2.6,6.1c-1.7,1.7-3.7,2.5-6.1,2.5
				c-2.4,0-4.4-0.8-6.1-2.5c-1.7-1.7-2.5-3.7-2.5-6.1c0-2.4,0.8-4.4,2.5-6.1C170.3,0.8,172.3,0,174.7,0z M174.7,2.9
				c-1.6,0-2.9,0.6-4.1,1.7c-1.1,1.1-1.7,2.5-1.7,4c0,1.6,0.6,2.9,1.7,4.1c1.1,1.1,2.5,1.7,4.1,1.7s2.9-0.6,4-1.7
				c1.1-1.1,1.7-2.5,1.7-4.1c0-1.6-0.6-2.9-1.7-4C177.6,3.4,176.3,2.9,174.7,2.9z"/>
		</g>
		<g>
			<polygon points="34.1,0.2 24.6,17 28.1,17 34.1,6 40.1,17 43.6,17 			"/>
		</g>
		<g>
			<polygon points="124.8,0.2 115.3,17 118.9,17 124.8,6 130.8,17 134.3,17 			"/>
		</g>
		<g>
			<polygon points="100.6,17 110.1,0.2 106.6,0.2 100.6,11.2 94.7,0.2 91.1,0.2 			"/>
		</g>
	</g>
</g>
</svg>
